<svg width="800" height="800" viewBox="0 0 800 800" fill="none" xmlns="http://www.w3.org/2000/svg">
<path fill-rule="evenodd" clip-rule="evenodd" d="M80.6279 256.587V252.987C80.6279 232.156 93.2311 212.181 115.659 197.45C138.09 182.722 168.512 174.447 200.234 174.447C314.431 174.447 485.569 174.447 599.765 174.447C631.487 174.447 661.909 182.722 684.34 197.45C706.769 212.181 719.372 232.156 719.372 252.987V256.587C714.844 256.244 710.265 256.069 705.662 256.069C543.697 256.069 256.303 256.069 94.3373 256.069C89.7342 256.069 85.1561 256.244 80.6279 256.587V256.587Z" fill="#FFFFFF" fill-opacity="0.290196"/>
<path fill-rule="evenodd" clip-rule="evenodd" d="M160.156 178.987V175.528C160.156 154.697 172.756 134.722 195.187 119.99C217.619 105.262 248.041 96.9873 279.763 96.9873C353.166 96.9873 446.834 96.9873 520.237 96.9873C551.959 96.9873 582.381 105.262 604.812 119.99C627.244 134.722 639.844 154.697 639.844 175.528V178.987C627.097 176.009 613.553 174.447 599.766 174.447C485.569 174.447 314.431 174.447 200.234 174.447C186.447 174.447 172.903 176.009 160.156 178.987V178.987Z" fill="#FFFFFF" fill-opacity="0.709804"/>
<path d="M142.288 164.475C147.997 129.422 181.544 101.944 213.638 89.8561C234.397 82.0342 256.766 78.3748 278.944 78.2404C359.647 78.0748 440.353 78.0748 521.056 78.2404C578.575 78.5904 642.313 103.028 656.353 157.85C656.888 159.937 657.325 162.05 657.669 164.178C694.825 175.537 726.481 198.619 735.878 235.309C737.256 240.681 737.991 246.212 738.106 251.756C771.969 271.009 796.56 307.331 796.95 348.937C797.216 435.944 797.216 522.953 796.95 609.962C796.403 668.187 745.81 721.197 685.15 721.759C495.05 722.362 304.95 722.362 114.85 721.759C56.8689 721.222 3.62207 671.337 3.0502 609.959C2.78145 522.953 2.78145 435.944 3.0502 348.937C3.42207 309.065 27.1439 271.415 61.8939 251.612C61.9502 248.481 62.0502 247.697 62.2564 245.7C66.0846 208.853 100.878 179.831 134.11 167.315C136.81 166.297 139.535 165.35 142.288 164.475V164.475ZM688.86 274.781C496.353 274.35 303.847 274.35 111.341 274.781C74.1658 277.2 40.9189 309.594 40.5502 349.169C40.2814 436.178 39.7439 523.19 40.5533 610.194C41.1471 648.478 74.0814 683.628 114.616 684.256C304.863 686.019 495.138 686.019 685.385 684.256C723.9 683.659 758.819 650.615 759.447 610.194C760.266 523.034 760.266 435.862 759.447 348.703C758.869 311.384 727.675 277.287 688.86 274.781V274.781ZM600.841 193.2C467.316 192.728 333.794 193.197 200.269 193.197C188.178 193.24 176.135 194.556 164.353 197.262C164.353 197.262 163.7 197.378 162.678 197.475C147.591 201.115 133.275 207.269 120.981 216.64C113.866 222.062 107.503 228.744 103.428 236.753L103.147 237.319H109.547C111.303 237.215 113.072 237.153 114.85 237.137C304.95 236.547 495.05 236.547 685.15 237.137C686.894 237.153 688.628 237.215 690.363 237.319H696.853C686.491 216.109 663.472 203.294 637.144 197.297C635.935 197.219 634.7 197.044 633.45 196.765C628.66 195.74 628.206 195.703 625.86 195.315C617.625 193.956 609.294 193.29 600.956 193.203L600.841 193.2V193.2ZM614.544 156.253C615.081 156.287 615.394 156.306 615.394 156.306C598.06 127.594 558.191 115.969 520.903 115.74C440.078 115.575 359.253 115.25 278.428 115.744C241.991 116.115 202.294 127.522 184.722 156.112C184.722 156.112 190.525 155.862 195.997 155.747C196.531 155.737 197.066 155.725 197.597 155.719H197.65L198.181 155.709L198.375 155.706H198.394L198.81 155.703L199.172 155.7H199.416L200.328 155.697C256.194 155.503 312.06 155.472 367.925 155.5C445.194 155.475 522.463 155.54 599.728 155.697L600.585 155.7C600.991 155.7 601.397 155.706 601.806 155.709L602.613 155.719C602.963 155.722 603.322 155.731 603.691 155.74C607.291 155.819 610.916 155.987 614.544 156.253V156.253Z" fill="#FFFFFF"/>
<path fill-rule="evenodd" clip-rule="evenodd" d="M543.15 481.128L309.869 620.744V341.513L543.15 481.128Z" fill="#FFFFFF" fill-opacity="0.290196"/>
<path d="M311.5 322.831C314.3 323.184 316.978 324.041 319.497 325.422L552.781 465.037C556.697 467.591 557.484 468.756 558.906 470.962C563.816 478.572 562.187 489.7 555.116 495.562C554.134 496.378 553.847 496.522 552.781 497.216L319.497 636.834C315.453 639.05 314.078 639.197 311.5 639.422C302.166 640.237 292.775 633.066 291.331 623.559C291.141 622.316 291.166 621.997 291.119 620.744V341.512C291.281 337.172 291.703 336.459 292.434 334.612C295.362 327.212 303.1 322.416 311.5 322.831V322.831ZM328.619 587.672L506.641 481.128L328.619 374.584C328.619 445.612 328.619 516.644 328.619 587.672Z" fill="#FFFFFF"/>
</svg>
